# AST/ASF file generated using VICON BodyLanguage
# -----------------------------------------------
:version 1.10
:name VICON
:units
  mass 1.0
  length 0.45
  angle deg
:documentation
   .ast/.asf automatically generated from VICON data using
   VICON BodyBuilder and BodyLanguage model FoxedUp or BRILLIANT.MOD
:root
   order TX TY TZ RX RY RZ
   axis XYZ
   position 0 0 0  
   orientation 0 0 0 
:bonedata
  begin
     id 1 
     name lhipjoint
     direction 0.716248 -0.617586 0.324924 
     length 2.63557 
     axis 0 0 0  XYZ
  end
  begin
     id 2 
     name lfemur
     direction 0.34202 -0.939693 0  
     length 7.01235  
     axis 0 0 20  XYZ
    dof rx ry rz
    limits (-160.0 20.0)
           (-70.0 70.0)
           (-60.0 70.0)
  end
  begin
     id 3 
     name ltibia
     direction 0.34202 -0.939693 0   
     length 8.14348   
     axis 0 0 20   XYZ
    dof rx
    limits (-10.0 170.0)
  end
  begin
     id 4 
     name lfoot
     direction 0.0982064 -0.26982 0.95789   
     length 1.99077   
     axis -90 7.62852e-016 20   XYZ
    dof rx rz
    limits (-45.0 90.0)
           (-70.0 20.0)
  end
  begin
     id 5 
     name ltoes
     direction 1.53511e-011 -4.21891e-011 1   
     length 0.99735   
     axis -90 7.62852e-016 20   XYZ
    dof rx
    limits (-90.0 20.0)
  end
  begin
     id 6 
     name rhipjoint
     direction -0.687828 -0.642391 0.337975   
     length 2.5338  
     axis 0 0 0  XYZ 
  end
  begin
     id 7 
     name rfemur
     direction -0.34202 -0.939693 0   
     length 6.90199   
     axis 0 0 -20   XYZ
    dof rx ry rz
    limits (-160.0 20.0)
           (-70.0 70.0)
           (-70.0 60.0)
  end
  begin
     id 8 
     name rtibia
     direction -0.34202 -0.939693 0   
     length 8.07725   
     axis 0 0 -20   XYZ
    dof rx
    limits (-10.0 170.0)
 end
 begin
     id 9 
     name rfoot
     direction -0.0912384 -0.250675 0.963762   
     length 2.11621  
     axis -90 -7.62852e-016 -20   XYZ
    dof rx rz
    limits (-45.0 90.0)
           (-20.0 70.0)
  end
  begin
     id 10 
     name rtoes
     direction -1.5359e-011 -4.21894e-011 1   
     length 1.06031   
     axis -90 -7.62852e-016 -20   XYZ
    dof rx
    limits (-90.0 20.0)
  end
  begin
     id 11 
     name lowerback
     direction -0.0403572 0.987953 -0.149396   
     length 2.05637   
     axis 0 0 0   XYZ
    dof rx ry rz
    limits (-20.0 45.0)
           (-30.0 30.0)
           (-30.0 30.0)
  end
  begin
     id 12 
     name upperback
     direction -0.00512151 0.997598 0.0690792   
     length 2.01086   
     axis 0 0 0   XYZ
    dof rx ry rz
    limits (-20.0 45.0)
           (-30.0 30.0)
           (-30.0 30.0)
  end
  begin
     id 13 
     name thorax
     direction 0.0136133 0.989392 0.14463   
     length 2.09035   
     axis 0 0 0   XYZ
    dof rx ry rz
    limits (-20.0 45.0)
           (-30.0 30.0)
           (-30.0 30.0)
  end
  begin
     id 14 
     name lowerneck
     direction 0.0250714 0.992811 0.11704   
     length 1.70806   
     axis 0 0 0   XYZ
    dof rx ry rz
    limits (-20.0 45.0)
           (-30.0 30.0)
           (-30.0 30.0)
  end
  begin
     id 15 
     name upperneck
     direction -0.0519205 0.998394 -0.0226787   
     length 1.6689   
     axis 0 0 0   XYZ
    dof rx ry rz
    limits (-20.0 45.0)
           (-30.0 30.0)
           (-30.0 30.0)
  end
  begin
     id 16
     name head
     direction -0.0201693 0.999547 -0.0223192  
     length 1.83412  
     axis 0 0 0   XYZ
    dof rx ry rz
    limits (-20.0 45.0)
           (-30.0 30.0)
           (-30.0 30.0)
  end
  begin
     id 17 
     name lclavicle
     direction 0.89585 0.444077 -0.0157448  
     length 3.39587  
     axis 0 0 0   XYZ
    dof ry rz
    limits (-20.0 10.0)
           (0.0 20.0)
  end
  begin
     id 18 
     name lhumerus
     direction 1 -4.48956e-011 1.99132e-028   
     length 5.79199   
     axis 180 -30 -90   XYZ
    dof rx ry rz
    limits (-60.0 90.0)
           (-90.0 90.0)
           (-90.0 90.0)
  end
  begin
     id 19
     name lradius
     direction 1 -4.48974e-011 8.72912e-028   
     length 3.49908   
     axis 180 -30 -90   XYZ
    dof rx
    limits (-10.0 170.0)
  end
  begin
     id 20
     name lwrist
     direction 1 -4.48994e-011 4.76442e-027   
     length 1.74954   
     axis -3.27502e-015 90 90   XYZ
    dof ry
    limits (-180.0 0.0)
 end
  begin
     id 21 
     name lhand
     direction 1 -4.48945e-011 9.531e-027   
     length 0.593861   
     axis -6.08098e-015 90 90   XYZ
    dof rx rz
    limits (-90.0 90.0)
           (-45.0 45.0)
  end
  begin
     id 22 
     name lfingers
     direction 1 -4.48945e-011 1.9062e-026   
     length 0.478786   
     axis -1.21619e-014 90 90   XYZ
    dof rx
    limits (0.0 90.0)
  end
  begin
     id 23
     name lthumb
     direction 0.707107 -6.34904e-011 0.707107   
     length 0.687444   
     axis -90 45 -9.86923e-015   XYZ
    dof rx rz
    limits (-45.0 45.0)
           (-45.0 45.0)
  end
  begin
     id 24 
     name rclavicle
     direction -0.940466 0.338394 0.0318182   
     length 3.51226  
     axis 0 0 0   XYZ 
    dof ry rz
    limits (-10.0 20.0)
           (-20.0 0.0)
  end
  begin
     id 25 
     name rhumerus
     direction -1 -4.48976e-011 2.0905e-027  
     length 5.73799   
     axis 180 30 90   XYZ
    dof rx ry rz
    limits (-90.0 60.0)
           (-90.0 90.0)
           (-90.0 90.0)
  end
  begin
     id 26 
     name rradius
     direction -1 -4.48968e-011 -9.39692e-029   
     length 3.57916   
     axis 180 30 90   XYZ
    dof rx
    limits (-10.0 170.0)
  end
  begin
     id 27 
     name rwrist
     direction -1 -4.48959e-011 4.7652e-027   
     length 1.78958   
     axis -3.27502e-015 -90 -90   XYZ
    dof ry
    limits (-180.0 0.0)
  end
  begin
     id 28
     name rhand
     direction -1 -4.49042e-011 9.5267e-027   
     length 0.615577   
     axis -6.08098e-015 -90 -90   XYZ
    dof rx rz
    limits (-90.0 90.0)
           (-45.0 45.0)
  end
  begin
     id 29
     name rfingers
     direction -1 -4.48935e-011 1.90629e-026   
     length 0.496294   
     axis -1.21619e-014 -90 -90   XYZ
    dof rx
    limits (0.0 90.0)
  end
  begin
     id 30
     name rthumb
     direction -0.707107 -6.34977e-011 0.707107   
     length 0.712582   
     axis -90 -45 9.86923e-015   XYZ
    dof rx rz
    limits (-45.0 45.0)
           (-45.0 45.0)
  end
:hierarchy
  begin
    root lhipjoint rhipjoint lowerback
    lhipjoint lfemur
    lfemur ltibia
    ltibia lfoot
    lfoot ltoes
    rhipjoint rfemur
    rfemur rtibia
    rtibia rfoot
    rfoot rtoes
    lowerback upperback
    upperback thorax
    thorax lowerneck lclavicle rclavicle
    lowerneck upperneck
    upperneck head
    lclavicle lhumerus
    lhumerus lradius
    lradius lwrist
    lwrist lhand lthumb
    lhand lfingers
    rclavicle rhumerus
    rhumerus rradius
    rradius rwrist
    rwrist rhand rthumb
    rhand rfingers
  end

#!OML:ASF H:\Terrain\Patient Classification 1\PaulMetrics\March17Take5\PaulMetrics.ASF
:FULLY-SPECIFIED
:DEGREES
321
root 17.9278 17.4293 -17.2781 -0.39845 -65.4623 9.37538
lowerback 1.67044 0.366394 -3.31996
upperback -1.94686 0.380637 0.0221693
thorax -2.9618 0.259236 1.86777
lowerneck -5.335 3.73364 3.5054
upperneck 14.3523 5.28219 -4.97379
head 5.42096 2.3908 -1.79734
rclavicle -5.47403e-014 1.70955e-014
rhumerus -42.6836 9.51475 -86.9812
rradius 38.4994
rwrist -7.9144
rhand -19.3855 -31.5259
rfingers 7.12502
rthumb 6.93301 -61.3924
lclavicle -5.47403e-014 1.70955e-014
lhumerus -38.3549 2.97889 75.9802
lradius 36.9467
lwrist 20.1722
lhand -12.0015 -20.7577
lfingers 7.12502
lthumb 14.0556 8.74698
rfemur -12.9062 2.56137 23.4583
rtibia 22.8868
rfoot -20.2149 -25.2953
rtoes 6.35813
lfemur -23.35 1.23426 -14.8546
ltibia 30.9618
lfoot -12.4714 12.8048
ltoes -14.9606
322
root 17.9317 17.4229 -17.2748 0.277992 -65.2993 8.60934
lowerback 1.83438 0.312156 -3.03544
upperback -1.84332 0.316979 0.116953
thorax -2.94183 0.221538 1.80813
lowerneck -5.27271 3.76466 3.73799
upperneck 14.6672 5.33406 -5.16139
head 5.52155 2.41057 -1.89113
rclavicle 4.17448e-014 -1.35174e-014
rhumerus -42.4338 8.94299 -86.3194
rradius 38.5641
rwrist -5.42677
rhand -15.4708 -31.3122
rfingers 7.12502
rthumb 10.7107 -61.0192
lclavicle 4.17448e-014 -1.35174e-014
lhumerus -38.592 2.79557 76.0457
lradius 36.8562
lwrist 20.0264
lhand -12.1234 -20.5792
lfingers 7.12502
lthumb 13.9381 8.93359
rfemur -12.8723 2.47037 23.7834
rtibia 22.9212
rfoot -20.5163 -25.3123
rtoes 6.47374
lfemur -23.7737 1.27334 -14.5244
ltibia 31.4923
lfoot -12.1018 12.4829
ltoes -12.8728
323
root 17.932 17.4264 -17.2695 0.77667 -65.2255 8.06495
lowerback 1.94466 0.237148 -2.94341
upperback -1.73145 0.223947 0.298345
thorax -2.88375 0.17364 1.94726
lowerneck -5.08246 3.88068 4.0236
upperneck 14.8464 5.51896 -5.51198
head 5.57064 2.49101 -2.03846
rclavicle 2.00276e-014 1.03368e-014
rhumerus -42.51 9.55102 -86.3731
rradius 38.7592
rwrist -6.77976
rhand -16.6068 -31.1219
rfingers 7.12502
rthumb 9.61474 -60.8825
lclavicle 2.00276e-014 1.03368e-014
lhumerus -38.7768 2.78334 76.1843
lradius 36.697
lwrist 20.3346
lhand -11.7248 -20.2789
lfingers 7.12502
lthumb 14.3222 9.20707
rfemur -12.8414 1.96596 24.0053
rtibia 22.7656
rfoot -20.3142 -25.021
rtoes 4.32185
lfemur -24.18 1.42666 -14.3068
ltibia 32.1158
lfoot -12.0035 12.3001
ltoes -11.0023
324
root 17.9308 17.4603 -17.2697 1.36957 -65.1539 7.48719
lowerback 2.07675 0.156656 -2.88118
upperback -1.66412 0.12213 0.526343
thorax -2.88349 0.123631 2.15166
lowerneck -4.86119 3.98197 4.01383
upperneck 14.9621 5.69913 -5.76246
head 5.58434 2.561 -2.10725
rclavicle 1.97791e-014 1.74931e-014
rhumerus -42.481 9.80672 -86.0864
rradius 38.9453
rwrist -6.49959
rhand -16.5557 -31.5305
rfingers 7.12502
rthumb 9.66405 -61.2888
lclavicle 1.97791e-014 1.74931e-014
lhumerus -38.9347 2.72833 76.429
lradius 36.4648
lwrist 20.715
lhand -11.4163 -20.0928
lfingers 7.12502
lthumb 14.6195 9.3719
rfemur -13.0137 1.78258 24.2592
rtibia 22.6224
rfoot -19.3222 -25.3959
rtoes 1.7175
lfemur -24.6119 1.73082 -14.0924
ltibia 32.7006
lfoot -12.1816 11.9223
ltoes -9.20036
325
root 17.9282 17.4446 -17.2541 0.716068 -65.2014 8.15882
lowerback 2.11627 0.15524 -3.19498
upperback -1.52331 0.110963 0.525108
thorax -2.76122 0.120851 2.32714
lowerneck -4.95796 4.02902 4.08353
upperneck 15.2939 5.80364 -6.03548
head 5.71955 2.5882 -2.19513
rclavicle 1.36664e-014 -1.59028e-015
rhumerus -42.4262 9.95094 -85.9544
rradius 38.9834
rwrist -6.74657
rhand -17.3981 -31.6859
rfingers 7.12502
rthumb 8.8512 -61.4803
lclavicle 1.36664e-014 -1.59028e-015
lhumerus -39.2917 2.67462 76.6316
lradius 36.395
lwrist 20.6027
lhand -11.5609 -20.2824
lfingers 7.12502
lthumb 14.4801 9.19235
rfemur -12.7464 1.63788 23.9224
rtibia 22.5118
rfoot -19.3725 -25.1108
rtoes 3.52864
lfemur -24.9798 2.07824 -14.5213
ltibia 33.3078
lfoot -12.1767 11.9063
ltoes -9.59607
326
root 17.9292 17.4307 -17.2453 0.492632 -65.237 8.37577
lowerback 2.26442 0.272933 -3.12363
upperback -1.39633 0.26439 0.389897
thorax -2.72226 0.192678 2.14053
lowerneck -5.39178 3.99054 4.2418
upperneck 15.8761 5.76138 -6.13662
head 5.98202 2.55115 -2.24779
rclavicle 4.37326e-014 -1.98785e-015
rhumerus -42.404 9.52745 -85.8235
rradius 39.0726
rwrist -6.76234
rhand -16.7848 -31.5384
rfingers 7.12502
rthumb 9.44295 -61.3069
lclavicle 4.37326e-014 -1.98785e-015
lhumerus -39.4706 2.22875 76.7645
lradius 36.2272
lwrist 20.4575
lhand -11.5635 -20.519
lfingers 7.12502
lthumb 14.4776 8.9559
rfemur -12.5428 1.40682 23.7892
rtibia 22.3561
rfoot -19.604 -24.6726
rtoes 4.77594
lfemur -25.3919 2.41407 -14.7316
ltibia 33.8575
lfoot -11.7996 11.8823
ltoes -12.3175
327
root 17.931 17.416 -17.2384 0.210877 -65.2865 8.5869
lowerback 2.53583 0.403072 -3.03718
upperback -1.29218 0.42886 0.198345
thorax -2.77523 0.270914 1.88592
lowerneck -5.55242 3.89814 4.64329
upperneck 16.2134 5.64061 -6.40914
head 6.12792 2.4874 -2.40731
rclavicle 6.55989e-015 1.07344e-014
rhumerus -42.5218 9.30303 -85.9145
rradius 39.2159
rwrist -7.25019
rhand -16.7395 -31.4591
rfingers 7.12502
rthumb 9.48667 -61.2256
lclavicle 6.55989e-015 1.07344e-014
lhumerus -39.5682 1.80705 76.7058
lradius 35.9243
lwrist 20.4976
lhand -11.0235 -20.5524
lfingers 7.12502
lthumb 14.9979 8.8845
rfemur -12.2388 1.1944 23.6698
rtibia 22.0154
rfoot -19.5833 -24.3358
rtoes 4.51169
lfemur -25.6569 2.81309 -14.9287
ltibia 34.3599
lfoot -11.6012 11.5893
ltoes -13.985
328
root 17.9281 17.4222 -17.2301 0.408958 -65.3027 8.35065
lowerback 2.70226 0.509802 -2.85679
upperback -1.2267 0.570517 0.0777629
thorax -2.80585 0.336812 1.65255
lowerneck -5.03627 3.74731 3.9081
upperneck 15.7235 5.27937 -4.91885
head 5.80631 2.39289 -1.84976
rclavicle -6.41081e-015 3.97569e-016
rhumerus -42.8853 9.39922 -86.0862
rradius 39.5476
rwrist -7.57406
rhand -17.4693 -31.8632
rfingers 7.12502
rthumb 8.78246 -61.6605
lclavicle -6.41081e-015 3.97569e-016
lhumerus -39.8041 1.55222 76.5719
lradius 35.7167
lwrist 20.3379
lhand -10.6485 -20.47
lfingers 7.12502
lthumb 15.3591 8.93953
rfemur -12.1409 1.48454 23.7497
rtibia 21.9093
rfoot -19.6637 -24.5461
rtoes 5.24998
lfemur -25.9137 3.23022 -14.9255
ltibia 34.6287
lfoot -11.3955 11.0813
ltoes -12.9511
329
root 17.9176 17.4444 -17.2074 0.281692 -65.535 8.52339
lowerback 2.57597 0.626043 -2.75817
upperback -1.07463 0.73288 -0.0390202
thorax -2.58311 0.410469 1.47093
lowerneck -5.08583 3.83849 4.75667
upperneck 15.9474 5.42221 -5.60126
head 5.93295 2.45948 -2.19376
rclavicle -3.70236e-014 -3.97569e-015
rhumerus -42.8508 9.36274 -86.0733
rradius 39.5923
rwrist -7.23121
rhand -17.5041 -32.1318
rfingers 7.12502
rthumb 8.74887 -61.9305
lclavicle -3.70236e-014 -3.97569e-015
lhumerus -40.1152 1.67188 76.4355
lradius 35.6185
lwrist 19.9507
lhand -10.5881 -20.6828
lfingers 7.12502
lthumb 15.4172 8.72225
rfemur -11.8861 2.14176 23.5416
rtibia 21.8047
rfoot -21.0549 -23.9664
rtoes 11.4721
lfemur -26.0197 3.59492 -15.1209
ltibia 34.7449
lfoot -11.3877 10.6011
ltoes -12.1749
